#!OML:ASF X:\für Bonn\!DataBase\2005_08_10_Bjorn_Final\c3d\bjorn.ASF
:FULLY-SPECIFIED
:DEGREES
690
root 0.583605 1.58493 18.1329 -442.591 -175.568 -714.101
lowerback -9.76672 -0.0568514 -4.21382
upperback 0.774052 0.500089 -2.8733
thorax 6.29515 0.11044 -0.573708
lowerneck -12.9418 -5.50819 -2.7633
upperneck 1.65364 -7.52591 5.59261
head 3.18632 -3.66496 1.80854
rclavicle -1.19271e-014 2.10712e-014
rhumerus -246.814 -230.348 67.8779
rradius 110.683
rwrist -21.8106
rhand -31.8681 10.7272
rfingers 7.12502
rthumb -5.1214 -19.1909
lclavicle -1.19271e-014 2.10712e-014
lhumerus -74.2481 -65.6651 118.117
lradius 109.048
lwrist 35.2008
lhand -9.46106 -373.82
lfingers 7.12502
lthumb 16.5026 15.4978
rfemur -16.8755 -24.0361 11.266
rtibia 29.3189
rfoot 1.85914 -6.06892
rtoes 12.452
lfemur 163.744 178.851 166.142
ltibia 24.7103
lfoot 0.0996913 7.56222
ltoes 16.6514
691
root 0.583386 1.58464 18.1327 -442.589 -175.569 -714.107
lowerback -9.7695 -0.0486933 -4.21266
upperback 0.776134 0.51087 -2.87216
thorax 6.2987 0.115602 -0.571573
lowerneck -12.9476 -5.50853 -2.77326
upperneck 1.66587 -7.52386 5.58651
head 3.19178 -3.66367 1.80822
rclavicle -1.43125e-014 -1.43125e-014
rhumerus -246.871 -230.377 67.7352
rradius 110.615
rwrist -22.1427
rhand -30.9971 10.5766
rfingers 7.12502
rthumb -4.28034 -19.3602
lclavicle -1.43125e-014 -1.43125e-014
lhumerus -74.3927 -65.7062 118.33
lradius 108.945
lwrist 35.5605
lhand -9.26699 -373.805
lfingers 7.12502
lthumb 16.6894 15.4975
rfemur -16.876 -24.0249 11.2653
rtibia 29.3223
rfoot 1.82371 -6.11327
rtoes 12.534
lfemur 163.748 178.858 166.142
ltibia 24.7091
lfoot 0.0425613 7.68028
ltoes 16.4954
692
root 0.582952 1.58418 18.1329 -442.609 -175.584 -714.116
lowerback -9.75705 -0.0353042 -4.18809
upperback 0.795082 0.526309 -2.87832
thorax 6.31164 0.123764 -0.589673
lowerneck -12.9789 -5.51379 -2.781
upperneck 1.67435 -7.53343 5.61918
head 3.20331 -3.66732 1.81898
rclavicle -1.59028e-014 1.51076e-014
rhumerus -246.9 -230.395 67.6173
rradius 110.558
rwrist -22.4981
rhand -30.0309 10.4177
rfingers 7.12502
rthumb -3.34729 -19.5358
lclavicle -1.59028e-014 1.51076e-014
lhumerus -74.4307 -65.7787 118.386
lradius 108.877
lwrist 35.81
lhand -8.95026 -373.713
lfingers 7.12502
lthumb 16.9943 15.5638
rfemur -16.8532 -24.0605 11.2666
rtibia 29.324
rfoot 1.82882 -6.12146
rtoes 12.5524
lfemur 163.78 178.909 166.166
ltibia 24.7074
lfoot -0.0752729 7.83409
ltoes 16.5616
693
root 0.582343 1.58409 18.1325 -442.609 -175.583 -714.116
lowerback -9.76399 -0.0362592 -4.1891
upperback 0.805982 0.526314 -2.87705
thorax 6.32713 0.123503 -0.587903
lowerneck -13.0168 -5.51515 -2.7722
upperneck 1.69902 -7.53477 5.59774
head 3.21756 -3.66751 1.80908
rclavicle -2.06736e-014 1.21259e-014
rhumerus -246.883 -230.414 67.5498
rradius 110.491
rwrist -22.8602
rhand -28.8589 10.2477
rfingers 7.12502
rthumb -2.21545 -19.7206
lclavicle -2.06736e-014 1.21259e-014
lhumerus -74.3573 -65.7958 118.366
lradius 108.792
lwrist 35.9153
lhand -8.4205 -373.566
lfingers 7.12502
lthumb 17.5042 15.6655
rfemur -16.8515 -24.0994 11.2571
rtibia 29.3276
rfoot 1.84806 -6.13587
rtoes 12.5538
lfemur 163.784 178.893 166.167
ltibia 24.7063
lfoot -0.120044 7.92372
ltoes 16.505
694
root 0.582091 1.58346 18.1323 -442.62 -175.598 -714.114
lowerback -9.74443 -0.026959 -4.17503
upperback 0.806634 0.535733 -2.87489
thorax 6.31659 0.128726 -0.592039
lowerneck -13.0006 -5.51398 -2.75916
upperneck 1.68497 -7.53575 5.59981
head 3.20906 -3.66849 1.80784
rclavicle 2.22639e-014 -2.72335e-014
rhumerus -246.879 -230.389 67.5088
rradius 110.458
rwrist -23.2835
rhand -27.5747 10.158
rfingers 7.12502
rthumb -0.975196 -19.8195
lclavicle 2.22639e-014 -2.72335e-014
lhumerus -74.2476 -65.8176 118.287
lradius 108.744
lwrist 35.9215
lhand -7.70258 -373.354
lfingers 7.12502
lthumb 18.195 15.8151
rfemur -16.8336 -24.0977 11.2686
rtibia 29.3252
rfoot 1.81586 -6.16967
rtoes 12.5841
lfemur 163.8 178.932 166.192
ltibia 24.7073
lfoot -0.21721 8.05687
ltoes 16.5532
695
root 0.581427 1.58352 18.1317 -442.626 -175.599 -714.132
lowerback -9.75477 -0.0208769 -4.16367
upperback 0.825474 0.544485 -2.88371
thorax 6.34247 0.132975 -0.606617
lowerneck -13.0602 -5.51301 -2.74132
upperneck 1.71672 -7.53813 5.59883
head 3.23064 -3.66843 1.80251
rclavicle -3.97569e-015 -4.07509e-015
rhumerus -246.775 -230.39 67.5358
rradius 110.374
rwrist -23.646
rhand -26.128 10.0628
rfingers 7.12502
rthumb 0.422091 -19.9165
lclavicle -3.97569e-015 -4.07509e-015
lhumerus -74.0306 -65.8299 118.081
lradius 108.703
lwrist 35.7939
lhand -6.84121 -373.114
lfingers 7.12502
lthumb 19.0235 15.9757
rfemur -16.8346 -24.1709 11.2635
rtibia 29.324
rfoot 1.8647 -6.15436
rtoes 12.5115
lfemur 163.815 178.94 166.194
ltibia 24.7109
lfoot -0.325756 8.17851
ltoes 16.5656
696
root 0.581039 1.5831 18.1322 -442.637 -175.614 -714.141
lowerback -9.74389 -0.0127958 -4.14933
upperback 0.835837 0.553345 -2.87436
thorax 6.3471 0.137723 -0.603531
lowerneck -13.0899 -5.51831 -2.7472
upperneck 1.74353 -7.54305 5.58629
head 3.24548 -3.67022 1.79811
rclavicle -8.74653e-015 -7.05686e-015
rhumerus -246.658 -230.341 67.6319
rradius 110.296
rwrist -23.986
rhand -24.481 10.0373
rfingers 7.12502
rthumb 2.01287 -19.9329
lclavicle -8.74653e-015 -7.05686e-015
lhumerus -73.7931 -65.82 117.851
lradius 108.648
lwrist 35.6186
lhand -5.79149 -372.959
lfingers 7.12502
lthumb 20.0328 16.0281
rfemur -16.8114 -24.1211 11.2679
rtibia 29.3195
rfoot 1.82369 -6.21332
rtoes 12.6947
lfemur 163.835 178.994 166.219
ltibia 24.7142
lfoot -0.417304 8.30974
ltoes 16.5289
697
root 0.580758 1.58251 18.1319 -442.635 -175.599 -714.133
lowerback -9.73225 -0.010761 -4.15444
upperback 0.831818 0.555909 -2.89526
thorax 6.33636 0.138901 -0.622234
lowerneck -13.1151 -5.51484 -2.71416
upperneck 1.76876 -7.54507 5.58611
head 3.25752 -3.6705 1.79121
rclavicle 2.22639e-014 4.07509e-015
rhumerus -246.54 -230.267 67.716
rradius 110.221
rwrist -24.3451
rhand -22.699 10.0404
rfingers 7.12502
rthumb 3.73375 -19.9066
lclavicle 2.22639e-014 4.07509e-015
lhumerus -73.5619 -65.8113 117.587
lradius 108.592
lwrist 35.3891
lhand -4.66292 -372.832
lfingers 7.12502
lthumb 21.1173 16.0379
rfemur -16.8144 -24.2113 11.2509
rtibia 29.3196
rfoot 1.85636 -6.20349
rtoes 12.6314
lfemur 163.83 178.953 166.203
ltibia 24.7161
lfoot -0.448896 8.37511
ltoes 16.6093
698
root 0.580511 1.58257 18.1314 -442.654 -175.615 -714.141
lowerback -9.72826 -0.00415321 -4.14482
upperback 0.85273 0.564422 -2.88221
thorax 6.35605 0.143088 -0.612792
lowerneck -13.1572 -5.51765 -2.72439
upperneck 1.78602 -7.54608 5.5781
head 3.2717 -3.67031 1.78918
rclavicle -2.3059e-014 2.76311e-014
rhumerus -246.338 -230.214 67.9386
rradius 110.136
rwrist -24.6996
rhand -20.7268 10.0701
rfingers 7.12502
rthumb 5.63809 -19.8348
lclavicle -2.3059e-014 2.76311e-014
lhumerus -73.287 -65.8106 117.31
lradius 108.545
lwrist 35.1358
lhand -3.59134 -372.748
lfingers 7.12502
lthumb 22.1463 16.0038
rfemur -16.7916 -24.2122 11.2583
rtibia 29.3161
rfoot 1.84953 -6.21987
rtoes 12.5999
lfemur 163.861 179.007 166.228
ltibia 24.7168
lfoot -0.546064 8.50429
ltoes 16.5655
699
root 0.579829 1.58187 18.131 -442.653 -175.615 -714.158
lowerback -9.72778 0.00763797 -4.12998
upperback 0.860657 0.578996 -2.90105
thorax 6.36423 0.150516 -0.63887
lowerneck -13.1566 -5.51514 -2.67698
upperneck 1.76627 -7.55179 5.57809
head 3.26249 -3.67383 1.78038
rclavicle 5.08889e-014 -4.99943e-014
rhumerus -246.116 -230.113 68.1562
rradius 110.059
rwrist -25.0323
rhand -18.3466 10.1534
rfingers 7.12502
rthumb 7.93586 -19.6776
lclavicle 5.08889e-014 -4.99943e-014
lhumerus -72.9889 -65.8242 116.98
lradius 108.486
lwrist 34.9321
lhand -2.53433 -372.629
lfingers 7.12502
lthumb 23.1608 15.9982
rfemur -16.7967 -24.2335 11.2506
rtibia 29.3231
rfoot 1.86077 -6.22921
rtoes 12.762
lfemur 163.871 179.029 166.236
ltibia 24.7116
lfoot -0.653776 8.63904
ltoes 16.7864
700
root 0.579819 1.58179 18.1307 -442.663 -175.631 -714.156
lowerback -9.72158 0.0115813 -4.11944
upperback 0.871637 0.583177 -2.89
thorax 6.37224 0.15283 -0.632597
lowerneck -13.2026 -5.5196 -2.69462
upperneck 1.80428 -7.55538 5.58287
head 3.2859 -3.67411 1.78351
rclavicle -3.18055e-015 -8.84592e-015
rhumerus -245.854 -229.993 68.4634
rradius 109.972
rwrist -25.4014
rhand -15.8246 10.1719
rfingers 7.12502
rthumb 10.3693 -19.5525
lclavicle -3.18055e-015 -8.84592e-015
lhumerus -72.7063 -65.8012 116.68
lradius 108.449
lwrist 34.7649
lhand -1.57791 -372.535
lfingers 7.12502
lthumb 24.0782 15.9747
rfemur -16.7814 -24.237 11.2627
rtibia 29.3257
rfoot 1.85342 -6.23716
rtoes 12.7808
lfemur 163.89 179.078 166.262
ltibia 24.7081
lfoot -0.738316 8.76087
ltoes 16.7794
701
root 0.578742 1.58158 18.1309 -442.672 -175.631 -714.155
lowerback -9.70902 0.0131279 -4.1085
upperback 0.871625 0.583309 -2.89192
thorax 6.36519 0.153427 -0.640683
lowerneck -13.2034 -5.51992 -2.70574
upperneck 1.80771 -7.55399 5.58553
head 3.28792 -3.67323 1.78646
rclavicle -1.19271e-014 -1.23246e-014
rhumerus -245.552 -229.873 68.8101
rradius 109.889
rwrist -25.9126
rhand -13.0989 10.1141
rfingers 7.12502
rthumb 12.9979 -19.461
lclavicle -1.19271e-014 -1.23246e-014
lhumerus -72.5215 -65.7967 116.472
lradius 108.407
lwrist 34.6555
lhand -0.762945 -372.427
lfingers 7.12502
lthumb 24.8594 15.9765
rfemur -16.7805 -24.3339 11.2563
rtibia 29.3331
rfoot 1.91605 -6.19545
rtoes 12.594
lfemur 163.905 179.058 166.263
ltibia 24.7041
lfoot -0.803434 8.83927
ltoes 16.7837
702
root 0.578319 1.58113 18.1308 -442.682 -175.647 -714.145
lowerback -9.69787 0.015119 -4.09233
upperback 0.880282 0.584085 -2.89159
thorax 6.36815 0.154394 -0.649333
lowerneck -13.2205 -5.51957 -2.68056
upperneck 1.82122 -7.558 5.58011
head 3.2945 -3.67494 1.77932
rclavicle -7.95139e-015 -1.02374e-014
rhumerus -245.23 -229.727 69.1965
rradius 109.844
rwrist -26.5254
rhand -10.29 10.002
rfingers 7.12502
rthumb 15.7043 -19.3807
lclavicle -7.95139e-015 -1.02374e-014
lhumerus -72.3199 -65.797 116.248
lradius 108.367
lwrist 34.5916
lhand -0.0119332 -372.358
lfingers 7.12502
lthumb 25.5789 15.9444
rfemur -16.764 -24.3288 11.2681
rtibia 29.3362
rfoot 1.88895 -6.21658
rtoes 12.7039
lfemur 163.916 179.115 166.288
ltibia 24.7016
lfoot -0.896309 8.97751
ltoes 16.7457
703
root 0.578232 1.58084 18.1302 -442.691 -175.645 -714.156
lowerback -9.6934 0.0239025 -4.0868
upperback 0.892923 0.595617 -2.89925
thorax 6.37894 0.159985 -0.658891
lowerneck -13.2731 -5.52259 -2.68169
upperneck 1.85996 -7.56361 5.59048
head 3.31903 -3.6761 1.78104
rclavicle -8.74653e-015 2.84262e-014
rhumerus -244.883 -229.572 69.5966
rradius 109.773
rwrist -27.1173
rhand -7.56385 9.82726
rfingers 7.12502
rthumb 18.3285 -19.3293
lclavicle -8.74653e-015 2.84262e-014
lhumerus -72.0955 -65.8049 116.001
lradius 108.323
lwrist 34.5187
lhand 0.65619 -372.337
lfingers 7.12502
lthumb 26.2187 15.8719
rfemur -16.7612 -24.3832 11.2616
rtibia 29.3381
rfoot 1.91995 -6.20821
rtoes 12.6591
lfemur 163.931 179.083 166.289
ltibia 24.7011
lfoot -0.933302 9.05558
ltoes 16.6997
